<?xml version="1.0" encoding="UTF-8" standalone="no" ?>
<!DOCTYPE svg PUBLIC "-//W3C//DTD SVG 1.1//EN" "http://www.w3.org/Graphics/SVG/1.1/DTD/svg11.dtd">
<svg xmlns="http://www.w3.org/2000/svg" xmlns:xlink="http://www.w3.org/1999/xlink" version="1.1" width="173" height="173" viewBox="0 0 173 173" xml:space="preserve">
<desc>Created with Fabric.js 3.6.6</desc>
<defs>
</defs>
<g transform="matrix(1 0 0 1 86.8 87.64)"  >
<g style=""   >
		<g transform="matrix(1 0 0 1 12.14 49.86)"  >
<rect style="stroke: none; stroke-width: 2; stroke-dasharray: none; stroke-linecap: butt; stroke-dashoffset: 0; stroke-linejoin: miter; stroke-miterlimit: 4; fill: rgb(51,51,51); fill-opacity: 0; fill-rule: nonzero; opacity: 1;"  x="-22.77" y="-19.825" rx="0" ry="0" width="45.54" height="39.65" />
</g>
		<g transform="matrix(1 0 0 1 -28.31 0)"  >
<path style="stroke: none; stroke-width: 1; stroke-dasharray: none; stroke-linecap: butt; stroke-dashoffset: 0; stroke-linejoin: miter; stroke-miterlimit: 4; fill: rgb(20,121,227); fill-rule: nonzero; opacity: 1;"  transform=" translate(-57.98, -75.14)" d="m 85.62 150.28 c -28.7 -50.13 -56.89 -99.35 -85.62 -149.52 a 56.85 56.85 0 0 1 6 -0.69 c 15.9 -0.07 31.86 0.07 47.81 -0.07 c 3.84 0 6.32 1.1 8.33 4.59 q 25.83 45 52.05 89.7 c 2.3 3.92 2.47 6.85 -0.08 10.8 c -8.54 13.22 -16.65 26.73 -25 40.11 c -0.85 1.45 -1.91 2.8 -3.49 5.08 z" stroke-linecap="round" />
</g>
		<g transform="matrix(1 0 0 1 55.43 -47.44)"  >
<path style="stroke: none; stroke-width: 1; stroke-dasharray: none; stroke-linecap: butt; stroke-dashoffset: 0; stroke-linejoin: miter; stroke-miterlimit: 4; fill: rgb(94,163,216); fill-rule: nonzero; opacity: 1;"  transform=" translate(-141.72, -27.7)" d="m 140 54.16 c -0.13 -2.23 -0.34 -4.46 -0.36 -6.7 c -0.05 -6.7 -0.43 -13.43 0.09 -20.09 c 0.47 -5.95 -1.91 -9.29 -7 -12 a 145.42 145.42 0 0 1 -21.87 -14.5 l 61.73 0 l -31.1 53.66 l -1.49 -0.37 z" stroke-linecap="round" />
</g>
</g>
</g>
</svg>